<mxfile host="app.diagrams.net" agent="Mozilla/5.0 (Windows NT 10.0; Win64; x64; rv:131.0) Gecko/20100101 Firefox/131.0" version="25.0.1">
  <diagram name="Page-1" id="b_HDnpSnPiXC6NOEgiW1">
    <mxGraphModel dx="250" dy="-992" grid="0" gridSize="11" guides="1" tooltips="1" connect="1" arrows="1" fold="1" page="0" pageScale="1" pageWidth="3300" pageHeight="4681" math="0" shadow="0">
      <root>
        <mxCell id="0" />
        <mxCell id="1" parent="0" />
        <mxCell id="oPstrzkBWRwHzrpRvFm4-18" style="edgeStyle=none;curved=1;rounded=0;orthogonalLoop=1;jettySize=auto;html=1;exitX=1;exitY=0;exitDx=0;exitDy=0;fontSize=12;startSize=8;endSize=8;" parent="1" source="oPstrzkBWRwHzrpRvFm4-16" edge="1">
          <mxGeometry relative="1" as="geometry">
            <mxPoint x="1795" y="2191" as="targetPoint" />
          </mxGeometry>
        </mxCell>
        <mxCell id="oPstrzkBWRwHzrpRvFm4-19" style="edgeStyle=none;curved=1;rounded=0;orthogonalLoop=1;jettySize=auto;html=1;exitX=0.5;exitY=0;exitDx=0;exitDy=0;fontSize=12;startSize=8;endSize=8;" parent="1" source="oPstrzkBWRwHzrpRvFm4-16" edge="1">
          <mxGeometry relative="1" as="geometry">
            <mxPoint x="1670" y="2171" as="targetPoint" />
          </mxGeometry>
        </mxCell>
        <mxCell id="oPstrzkBWRwHzrpRvFm4-20" style="edgeStyle=none;curved=1;rounded=0;orthogonalLoop=1;jettySize=auto;html=1;exitX=0;exitY=0;exitDx=0;exitDy=0;fontSize=12;startSize=8;endSize=8;" parent="1" source="oPstrzkBWRwHzrpRvFm4-16" target="oPstrzkBWRwHzrpRvFm4-21" edge="1">
          <mxGeometry relative="1" as="geometry">
            <mxPoint x="1545" y="2201" as="targetPoint" />
          </mxGeometry>
        </mxCell>
        <mxCell id="oPstrzkBWRwHzrpRvFm4-29" style="edgeStyle=none;curved=1;rounded=0;orthogonalLoop=1;jettySize=auto;html=1;exitX=1;exitY=0.5;exitDx=0;exitDy=0;fontSize=12;startSize=8;endSize=8;" parent="1" source="oPstrzkBWRwHzrpRvFm4-16" target="oPstrzkBWRwHzrpRvFm4-30" edge="1">
          <mxGeometry relative="1" as="geometry">
            <mxPoint x="1855" y="2301" as="targetPoint" />
          </mxGeometry>
        </mxCell>
        <mxCell id="oPstrzkBWRwHzrpRvFm4-32" style="edgeStyle=none;curved=1;rounded=0;orthogonalLoop=1;jettySize=auto;html=1;exitX=1;exitY=1;exitDx=0;exitDy=0;fontSize=12;startSize=8;endSize=8;" parent="1" source="oPstrzkBWRwHzrpRvFm4-16" target="oPstrzkBWRwHzrpRvFm4-33" edge="1">
          <mxGeometry relative="1" as="geometry">
            <mxPoint x="1795" y="2441" as="targetPoint" />
          </mxGeometry>
        </mxCell>
        <mxCell id="oPstrzkBWRwHzrpRvFm4-36" style="edgeStyle=none;curved=1;rounded=0;orthogonalLoop=1;jettySize=auto;html=1;exitX=1;exitY=0;exitDx=0;exitDy=0;fontSize=12;startSize=8;endSize=8;" parent="1" source="oPstrzkBWRwHzrpRvFm4-16" edge="1">
          <mxGeometry relative="1" as="geometry">
            <mxPoint x="2025" y="2181" as="targetPoint" />
          </mxGeometry>
        </mxCell>
        <mxCell id="oPstrzkBWRwHzrpRvFm4-39" style="edgeStyle=none;curved=1;rounded=0;orthogonalLoop=1;jettySize=auto;html=1;exitX=0.5;exitY=1;exitDx=0;exitDy=0;fontSize=12;startSize=8;endSize=8;" parent="1" source="oPstrzkBWRwHzrpRvFm4-16" target="oPstrzkBWRwHzrpRvFm4-40" edge="1">
          <mxGeometry relative="1" as="geometry">
            <mxPoint x="1665" y="2621" as="targetPoint" />
          </mxGeometry>
        </mxCell>
        <mxCell id="oPstrzkBWRwHzrpRvFm4-16" value="Jackson Elias&#39;s Death" style="ellipse;whiteSpace=wrap;html=1;" parent="1" vertex="1">
          <mxGeometry x="1610" y="2261" width="120" height="80" as="geometry" />
        </mxCell>
        <mxCell id="oPstrzkBWRwHzrpRvFm4-24" style="edgeStyle=none;curved=1;rounded=0;orthogonalLoop=1;jettySize=auto;html=1;exitX=0.5;exitY=1;exitDx=0;exitDy=0;fontSize=12;startSize=8;endSize=8;" parent="1" source="oPstrzkBWRwHzrpRvFm4-21" target="oPstrzkBWRwHzrpRvFm4-27" edge="1">
          <mxGeometry relative="1" as="geometry">
            <mxPoint x="1545" y="2371" as="targetPoint" />
          </mxGeometry>
        </mxCell>
        <mxCell id="oPstrzkBWRwHzrpRvFm4-25" style="edgeStyle=none;curved=1;rounded=0;orthogonalLoop=1;jettySize=auto;html=1;exitX=0;exitY=1;exitDx=0;exitDy=0;fontSize=12;startSize=8;endSize=8;" parent="1" source="oPstrzkBWRwHzrpRvFm4-21" edge="1">
          <mxGeometry relative="1" as="geometry">
            <mxPoint x="1435" y="2301" as="targetPoint" />
          </mxGeometry>
        </mxCell>
        <mxCell id="oPstrzkBWRwHzrpRvFm4-26" style="edgeStyle=none;curved=1;rounded=0;orthogonalLoop=1;jettySize=auto;html=1;exitX=0;exitY=0.5;exitDx=0;exitDy=0;fontSize=12;startSize=8;endSize=8;" parent="1" source="oPstrzkBWRwHzrpRvFm4-21" target="oPstrzkBWRwHzrpRvFm4-37" edge="1">
          <mxGeometry relative="1" as="geometry">
            <mxPoint x="1365" y="2151" as="targetPoint" />
          </mxGeometry>
        </mxCell>
        <mxCell id="K64KkESOAolKnABilGlZ-12" style="edgeStyle=none;curved=1;rounded=0;orthogonalLoop=1;jettySize=auto;html=1;exitX=0.5;exitY=0;exitDx=0;exitDy=0;fontSize=12;startSize=8;endSize=8;" edge="1" parent="1" source="oPstrzkBWRwHzrpRvFm4-21" target="K64KkESOAolKnABilGlZ-13">
          <mxGeometry relative="1" as="geometry">
            <mxPoint x="1430" y="2029" as="targetPoint" />
          </mxGeometry>
        </mxCell>
        <mxCell id="oPstrzkBWRwHzrpRvFm4-21" value="Police" style="ellipse;whiteSpace=wrap;html=1;" parent="1" vertex="1">
          <mxGeometry x="1485" y="2161" width="120" height="80" as="geometry" />
        </mxCell>
        <mxCell id="oPstrzkBWRwHzrpRvFm4-50" style="edgeStyle=none;curved=1;rounded=0;orthogonalLoop=1;jettySize=auto;html=1;exitX=0;exitY=0;exitDx=0;exitDy=0;entryX=0;entryY=0.5;entryDx=0;entryDy=0;fontSize=12;startSize=8;endSize=8;" parent="1" source="oPstrzkBWRwHzrpRvFm4-22" target="oPstrzkBWRwHzrpRvFm4-42" edge="1">
          <mxGeometry relative="1" as="geometry">
            <Array as="points">
              <mxPoint x="1193" y="2036" />
              <mxPoint x="1085" y="2350" />
              <mxPoint x="1127" y="2582" />
              <mxPoint x="1399" y="2766" />
            </Array>
          </mxGeometry>
        </mxCell>
        <mxCell id="K64KkESOAolKnABilGlZ-1" style="edgeStyle=none;curved=1;rounded=0;orthogonalLoop=1;jettySize=auto;html=1;exitX=1;exitY=0;exitDx=0;exitDy=0;fontSize=12;startSize=8;endSize=8;" edge="1" parent="1" source="oPstrzkBWRwHzrpRvFm4-22" target="K64KkESOAolKnABilGlZ-2">
          <mxGeometry relative="1" as="geometry">
            <mxPoint x="1733" y="2037" as="targetPoint" />
          </mxGeometry>
        </mxCell>
        <mxCell id="K64KkESOAolKnABilGlZ-8" style="edgeStyle=none;curved=1;rounded=0;orthogonalLoop=1;jettySize=auto;html=1;exitX=0.5;exitY=0;exitDx=0;exitDy=0;fontSize=12;startSize=8;endSize=8;" edge="1" parent="1" source="oPstrzkBWRwHzrpRvFm4-22" target="K64KkESOAolKnABilGlZ-9">
          <mxGeometry relative="1" as="geometry">
            <mxPoint x="1596" y="1942" as="targetPoint" />
          </mxGeometry>
        </mxCell>
        <mxCell id="oPstrzkBWRwHzrpRvFm4-22" value="Carlyle Expedition" style="ellipse;whiteSpace=wrap;html=1;" parent="1" vertex="1">
          <mxGeometry x="1610" y="2091" width="120" height="80" as="geometry" />
        </mxCell>
        <mxCell id="K64KkESOAolKnABilGlZ-3" style="edgeStyle=none;curved=1;rounded=0;orthogonalLoop=1;jettySize=auto;html=1;exitX=0.5;exitY=0;exitDx=0;exitDy=0;fontSize=12;startSize=8;endSize=8;" edge="1" parent="1" source="oPstrzkBWRwHzrpRvFm4-23" target="K64KkESOAolKnABilGlZ-4">
          <mxGeometry relative="1" as="geometry">
            <mxPoint x="1868" y="2058" as="targetPoint" />
          </mxGeometry>
        </mxCell>
        <mxCell id="oPstrzkBWRwHzrpRvFm4-23" value="Bloody Tongue Cult" style="ellipse;whiteSpace=wrap;html=1;" parent="1" vertex="1">
          <mxGeometry x="1785" y="2131" width="120" height="80" as="geometry" />
        </mxCell>
        <mxCell id="oPstrzkBWRwHzrpRvFm4-27" value="Lt. Poole" style="ellipse;whiteSpace=wrap;html=1;" parent="1" vertex="1">
          <mxGeometry x="1485" y="2331" width="120" height="80" as="geometry" />
        </mxCell>
        <mxCell id="oPstrzkBWRwHzrpRvFm4-35" style="edgeStyle=none;curved=1;rounded=0;orthogonalLoop=1;jettySize=auto;html=1;exitX=0.5;exitY=1;exitDx=0;exitDy=0;entryX=0.5;entryY=1;entryDx=0;entryDy=0;fontSize=12;startSize=8;endSize=8;" parent="1" source="oPstrzkBWRwHzrpRvFm4-28" target="oPstrzkBWRwHzrpRvFm4-34" edge="1">
          <mxGeometry relative="1" as="geometry">
            <Array as="points">
              <mxPoint x="1725" y="2771" />
            </Array>
          </mxGeometry>
        </mxCell>
        <mxCell id="oPstrzkBWRwHzrpRvFm4-28" value="Hilton Addams" style="ellipse;whiteSpace=wrap;html=1;" parent="1" vertex="1">
          <mxGeometry x="1335" y="2291" width="120" height="80" as="geometry" />
        </mxCell>
        <mxCell id="oPstrzkBWRwHzrpRvFm4-31" style="edgeStyle=none;curved=1;rounded=0;orthogonalLoop=1;jettySize=auto;html=1;exitX=1;exitY=0.5;exitDx=0;exitDy=0;fontSize=12;startSize=8;endSize=8;" parent="1" source="oPstrzkBWRwHzrpRvFm4-30" target="oPstrzkBWRwHzrpRvFm4-34" edge="1">
          <mxGeometry relative="1" as="geometry">
            <mxPoint x="2015" y="2301" as="targetPoint" />
          </mxGeometry>
        </mxCell>
        <mxCell id="oPstrzkBWRwHzrpRvFm4-30" value="New York TImes" style="ellipse;whiteSpace=wrap;html=1;" parent="1" vertex="1">
          <mxGeometry x="1795" y="2261" width="120" height="80" as="geometry" />
        </mxCell>
        <mxCell id="oPstrzkBWRwHzrpRvFm4-33" value="Funeral" style="ellipse;whiteSpace=wrap;html=1;" parent="1" vertex="1">
          <mxGeometry x="1735" y="2401" width="120" height="80" as="geometry" />
        </mxCell>
        <mxCell id="K64KkESOAolKnABilGlZ-5" style="edgeStyle=none;curved=1;rounded=0;orthogonalLoop=1;jettySize=auto;html=1;exitX=1;exitY=0.5;exitDx=0;exitDy=0;fontSize=12;startSize=8;endSize=8;" edge="1" parent="1" source="oPstrzkBWRwHzrpRvFm4-34" target="K64KkESOAolKnABilGlZ-6">
          <mxGeometry relative="1" as="geometry">
            <mxPoint x="2185" y="2301" as="targetPoint" />
          </mxGeometry>
        </mxCell>
        <mxCell id="oPstrzkBWRwHzrpRvFm4-34" value="&#xa;&lt;span style=&quot;left: 136.313px; top: 187.976px; font-size: 12px; font-family: serif; transform: scaleX(0.993867);&quot;&gt;Rebecca Shosenburg&lt;/span&gt;&#xa;&#xa;" style="ellipse;whiteSpace=wrap;html=1;" parent="1" vertex="1">
          <mxGeometry x="1955" y="2261" width="120" height="80" as="geometry" />
        </mxCell>
        <mxCell id="oPstrzkBWRwHzrpRvFm4-49" style="edgeStyle=none;curved=1;rounded=0;orthogonalLoop=1;jettySize=auto;html=1;exitX=0.5;exitY=1;exitDx=0;exitDy=0;entryX=0.5;entryY=0;entryDx=0;entryDy=0;fontSize=12;startSize=8;endSize=8;" parent="1" source="oPstrzkBWRwHzrpRvFm4-37" target="oPstrzkBWRwHzrpRvFm4-28" edge="1">
          <mxGeometry relative="1" as="geometry" />
        </mxCell>
        <mxCell id="oPstrzkBWRwHzrpRvFm4-37" value="Cpt Robson" style="ellipse;whiteSpace=wrap;html=1;" parent="1" vertex="1">
          <mxGeometry x="1305" y="2111" width="120" height="80" as="geometry" />
        </mxCell>
        <mxCell id="oPstrzkBWRwHzrpRvFm4-43" style="edgeStyle=none;curved=1;rounded=0;orthogonalLoop=1;jettySize=auto;html=1;exitX=0.5;exitY=0;exitDx=0;exitDy=0;fontSize=12;startSize=8;endSize=8;" parent="1" source="oPstrzkBWRwHzrpRvFm4-38" edge="1">
          <mxGeometry relative="1" as="geometry">
            <mxPoint x="2075" y="2096" as="targetPoint" />
          </mxGeometry>
        </mxCell>
        <mxCell id="oPstrzkBWRwHzrpRvFm4-38" value="London" style="ellipse;whiteSpace=wrap;html=1;" parent="1" vertex="1">
          <mxGeometry x="2015" y="2121" width="120" height="80" as="geometry" />
        </mxCell>
        <mxCell id="oPstrzkBWRwHzrpRvFm4-41" style="edgeStyle=none;curved=1;rounded=0;orthogonalLoop=1;jettySize=auto;html=1;exitX=0.5;exitY=1;exitDx=0;exitDy=0;fontSize=12;startSize=8;endSize=8;" parent="1" source="oPstrzkBWRwHzrpRvFm4-40" target="oPstrzkBWRwHzrpRvFm4-42" edge="1">
          <mxGeometry relative="1" as="geometry">
            <mxPoint x="1665" y="2711" as="targetPoint" />
          </mxGeometry>
        </mxCell>
        <mxCell id="oPstrzkBWRwHzrpRvFm4-40" value="Egypt" style="ellipse;whiteSpace=wrap;html=1;" parent="1" vertex="1">
          <mxGeometry x="1610" y="2581" width="120" height="80" as="geometry" />
        </mxCell>
        <mxCell id="oPstrzkBWRwHzrpRvFm4-46" style="edgeStyle=none;curved=1;rounded=0;orthogonalLoop=1;jettySize=auto;html=1;exitX=1;exitY=0.5;exitDx=0;exitDy=0;fontSize=12;startSize=8;endSize=8;" parent="1" source="oPstrzkBWRwHzrpRvFm4-42" target="oPstrzkBWRwHzrpRvFm4-47" edge="1">
          <mxGeometry relative="1" as="geometry">
            <mxPoint x="1815" y="2751" as="targetPoint" />
          </mxGeometry>
        </mxCell>
        <mxCell id="oPstrzkBWRwHzrpRvFm4-42" value="Cairo" style="ellipse;whiteSpace=wrap;html=1;" parent="1" vertex="1">
          <mxGeometry x="1610" y="2711" width="120" height="80" as="geometry" />
        </mxCell>
        <mxCell id="oPstrzkBWRwHzrpRvFm4-45" value="Penhew Foundation" style="ellipse;whiteSpace=wrap;html=1;" parent="1" vertex="1">
          <mxGeometry x="2015" y="2011" width="120" height="80" as="geometry" />
        </mxCell>
        <mxCell id="oPstrzkBWRwHzrpRvFm4-47" value="Henry Clive" style="ellipse;whiteSpace=wrap;html=1;" parent="1" vertex="1">
          <mxGeometry x="1825" y="2711" width="120" height="80" as="geometry" />
        </mxCell>
        <mxCell id="oPstrzkBWRwHzrpRvFm4-48" style="edgeStyle=none;curved=1;rounded=0;orthogonalLoop=1;jettySize=auto;html=1;exitX=1;exitY=1;exitDx=0;exitDy=0;entryX=0.992;entryY=0.613;entryDx=0;entryDy=0;entryPerimeter=0;fontSize=12;startSize=8;endSize=8;" parent="1" source="oPstrzkBWRwHzrpRvFm4-45" target="oPstrzkBWRwHzrpRvFm4-47" edge="1">
          <mxGeometry relative="1" as="geometry">
            <Array as="points">
              <mxPoint x="2162" y="2122" />
              <mxPoint x="2156" y="2519" />
              <mxPoint x="2132" y="2758" />
            </Array>
          </mxGeometry>
        </mxCell>
        <mxCell id="K64KkESOAolKnABilGlZ-2" value="Erica Carlyle" style="ellipse;whiteSpace=wrap;html=1;" vertex="1" parent="1">
          <mxGeometry x="1681" y="1977" width="120" height="80" as="geometry" />
        </mxCell>
        <mxCell id="K64KkESOAolKnABilGlZ-4" value="&lt;div&gt;Blue Hudson&lt;/div&gt;" style="ellipse;whiteSpace=wrap;html=1;" vertex="1" parent="1">
          <mxGeometry x="1835" y="2011" width="120" height="80" as="geometry" />
        </mxCell>
        <mxCell id="K64KkESOAolKnABilGlZ-6" value="&lt;div&gt;Millie Adams&lt;/div&gt;" style="ellipse;whiteSpace=wrap;html=1;" vertex="1" parent="1">
          <mxGeometry x="2181" y="2261" width="120" height="80" as="geometry" />
        </mxCell>
        <mxCell id="K64KkESOAolKnABilGlZ-10" style="edgeStyle=none;curved=1;rounded=0;orthogonalLoop=1;jettySize=auto;html=1;exitX=1;exitY=0.5;exitDx=0;exitDy=0;fontSize=12;startSize=8;endSize=8;" edge="1" parent="1" source="K64KkESOAolKnABilGlZ-9" target="K64KkESOAolKnABilGlZ-11">
          <mxGeometry relative="1" as="geometry">
            <mxPoint x="1732" y="1895" as="targetPoint" />
          </mxGeometry>
        </mxCell>
        <mxCell id="K64KkESOAolKnABilGlZ-9" value="&lt;div&gt;Carlyle&lt;/div&gt;" style="ellipse;whiteSpace=wrap;html=1;" vertex="1" parent="1">
          <mxGeometry x="1540" y="1855" width="120" height="80" as="geometry" />
        </mxCell>
        <mxCell id="K64KkESOAolKnABilGlZ-11" value="Hypatia Masters" style="ellipse;whiteSpace=wrap;html=1;" vertex="1" parent="1">
          <mxGeometry x="1732" y="1855" width="120" height="80" as="geometry" />
        </mxCell>
        <mxCell id="K64KkESOAolKnABilGlZ-13" value="&lt;div&gt;Dr.Mordecai Lemmings&lt;/div&gt;" style="ellipse;whiteSpace=wrap;html=1;" vertex="1" parent="1">
          <mxGeometry x="1370" y="1989" width="120" height="80" as="geometry" />
        </mxCell>
      </root>
    </mxGraphModel>
  </diagram>
</mxfile>
